<?xml version="1.0" standalone="no"?><!DOCTYPE svg PUBLIC "-//W3C//DTD SVG 1.1//EN" "http://www.w3.org/Graphics/SVG/1.1/DTD/svg11.dtd"><svg t="1490410719440" class="icon" style="" viewBox="0 0 1024 1024" version="1.1" xmlns="http://www.w3.org/2000/svg" p-id="5010" xmlns:xlink="http://www.w3.org/1999/xlink" width="200" height="200"><defs><style type="text/css"></style></defs><path d="M763.559969 0 260.436345 0C121.511977 0 8.878833 112.635601 8.878833 251.563655l0 503.117481c0 138.924368 112.635601 251.55874 251.557512 251.55874l503.123625 0c138.925597 0 251.561198-112.638059 251.561198-251.55874L1015.121167 251.564884C1015.121167 112.635601 902.485566 0 763.559969 0zM565.190672 827.445543c-31.708713 7.86267-64.877163 7.86267-96.590791 0-14.286492-3.508036-25.560128-16.785737-25.560128-27.228749 0-10.494618 11.273636-14.350386 25.560128-10.841121 31.714857 7.863898 64.883306 7.863898 96.590791 0 14.292636-3.508036 25.566271 0.346503 25.566271 10.841121C590.755715 810.659806 579.482079 823.937507 565.190672 827.445543zM609.160923 710.068257l-178.751328 63.129903c-13.519762 4.772403-27.836972-0.539414-31.813156-11.805678-3.97987-11.263806 3.827507-24.391601 17.343582-29.162776l178.755014-63.126216c13.52099-4.772403 27.835743 0.536957 31.813156 11.801991C630.488062 692.170516 622.680685 705.293396 609.160923 710.068257zM609.160923 637.080221 430.409596 700.203979c-13.519762 4.774861-27.836972-0.534499-31.813156-11.798305-3.97987-11.266263 3.827507-24.394059 17.343582-29.165234l178.755014-63.127445c13.52099-4.772403 27.835743 0.539414 31.813156 11.80322C630.488062 619.18125 622.680685 632.30536 609.160923 637.080221zM645.951681 517.564937l-5.101704 11.465318c-5.456808 11.557473-11.10407 23.450391-12.542918 26.42147-1.442534 2.978452-8.268152 9.01768-13.65738 10.349628-5.390457 1.330719-20.858991 6.323066-34.378752 11.099155l-149.861331 52.924037c-13.519762 4.772403-27.836972-0.538186-31.813156-11.80322-3.97987-11.266263 3.827507-24.385458 17.343582-29.162776l153.808025-54.31865c13.52099-4.771175 29.241415-19.444718 34.940284-32.599545 0 0 45.469307-105.037109 45.469307-147.439496 0-76.181517-61.974893-138.160095-138.156409-138.160095-76.181517 0-138.156409 61.979807-138.156409 138.160095 0 55.055891 65.346539 190.249822 65.346539 190.249822 6.240741 12.909081 0.385823 23.468822-13.011066 23.468822-13.39566 0-29.511737-10.533938-35.812685-23.413529 0 0-4.009359-8.189513-12.310687-26.783947-31.626388-70.840209-47.658911-125.859238-47.658911-163.522397 0-100.136917 81.466302-181.60322 181.60322-181.60322 100.135689 0 181.60322 81.466302 181.60322 181.60322C693.60322 391.678667 677.570697 446.539189 645.951681 517.564937z" p-id="5011" fill="#ffffff"></path></svg>